<?xml version="1.0" encoding="UTF-8" standalone="no"?>
<!DOCTYPE svg PUBLIC "-//W3C//DTD SVG 1.1//EN"
 "http://www.w3.org/Graphics/SVG/1.1/DTD/svg11.dtd">
<!-- Generated by graphviz version 2.43.0 (0)
 -->
<!-- Title: %3 Pages: 1 -->
<svg width="251pt" height="148pt"
 viewBox="0.00 0.00 251.24 148.20" xmlns="http://www.w3.org/2000/svg" xmlns:xlink="http://www.w3.org/1999/xlink">
<g id="graph0" class="graph" transform="scale(1 1) rotate(0) translate(4 144.2)">
<title>%3</title>
<polygon fill="white" stroke="transparent" points="-4,4 -4,-144.2 247.24,-144.2 247.24,4 -4,4"/>
<!-- 0 -->
<g id="node1" class="node">
<title>0</title>
<ellipse fill="none" stroke="black" cx="27" cy="-18" rx="27" ry="18"/>
<text text-anchor="middle" x="27" y="-14.3" font-family="Times,serif" font-size="14.00">0</text>
</g>
<!-- 1 -->
<g id="node2" class="node">
<title>1</title>
<ellipse fill="none" stroke="black" cx="27" cy="-122.2" rx="27" ry="18"/>
<text text-anchor="middle" x="27" y="-118.5" font-family="Times,serif" font-size="14.00">1</text>
</g>
<!-- 0&#45;&gt;1 -->
<g id="edge1" class="edge">
<title>0&#45;&gt;1</title>
<path fill="none" stroke="black" d="M21.78,-35.68C20.07,-51.77 19.79,-75.79 20.95,-94.45"/>
<polygon fill="black" stroke="black" points="17.47,-94.76 21.77,-104.44 24.44,-94.19 17.47,-94.76"/>
<text text-anchor="middle" x="16.37" y="-68.86" font-family="Times,serif" font-size="14.00">0</text>
</g>
<!-- 2 -->
<g id="node3" class="node">
<title>2</title>
<ellipse fill="none" stroke="black" cx="117.24" cy="-70.1" rx="27" ry="18"/>
<text text-anchor="middle" x="117.24" y="-66.4" font-family="Times,serif" font-size="14.00">2</text>
</g>
<!-- 0&#45;&gt;2 -->
<g id="edge2" class="edge">
<title>0&#45;&gt;2</title>
<path fill="none" stroke="black" d="M47.48,-29.82C59.39,-36.7 74.61,-45.49 87.8,-53.1"/>
<polygon fill="black" stroke="black" points="86.12,-56.18 96.53,-58.14 89.62,-50.11 86.12,-56.18"/>
<text text-anchor="middle" x="62.64" y="-45.26" font-family="Times,serif" font-size="14.00">1</text>
</g>
<!-- 1&#45;&gt;0 -->
<g id="edge3" class="edge">
<title>1&#45;&gt;0</title>
<path fill="none" stroke="black" d="M32.22,-104.52C33.93,-88.43 34.21,-64.41 33.05,-45.76"/>
<polygon fill="black" stroke="black" points="36.53,-45.44 32.23,-35.76 29.56,-46.02 36.53,-45.44"/>
<text text-anchor="middle" x="27.63" y="-78.94" font-family="Times,serif" font-size="14.00">0</text>
</g>
<!-- 1&#45;&gt;1 -->
<g id="edge4" class="edge">
<title>1&#45;&gt;1</title>
<path fill="none" stroke="black" d="M52.44,-128.89C63.03,-129.35 72,-127.12 72,-122.2 72,-118.97 68.14,-116.9 62.49,-115.99"/>
<polygon fill="black" stroke="black" points="62.6,-112.49 52.44,-115.51 62.27,-119.48 62.6,-112.49"/>
<text text-anchor="middle" x="77" y="-118.5" font-family="Times,serif" font-size="14.00">1</text>
</g>
<!-- 2&#45;&gt;1 -->
<g id="edge5" class="edge">
<title>2&#45;&gt;1</title>
<path fill="none" stroke="black" d="M96.76,-81.92C84.85,-88.8 69.63,-97.59 56.44,-105.2"/>
<polygon fill="black" stroke="black" points="54.62,-102.21 47.71,-110.25 58.12,-108.28 54.62,-102.21"/>
<text text-anchor="middle" x="71.6" y="-97.36" font-family="Times,serif" font-size="14.00">0</text>
</g>
<!-- H -->
<g id="node4" class="node">
<title>H</title>
<ellipse fill="none" stroke="black" cx="216.24" cy="-70.1" rx="27" ry="18"/>
<text text-anchor="middle" x="216.24" y="-66.4" font-family="Times,serif" font-size="14.00">H</text>
</g>
<!-- 2&#45;&gt;H -->
<g id="edge6" class="edge">
<title>2&#45;&gt;H</title>
<path fill="none" stroke="black" d="M144.29,-70.1C154.99,-70.1 167.46,-70.1 178.98,-70.1"/>
<polygon fill="black" stroke="black" points="179.22,-73.6 189.22,-70.1 179.22,-66.6 179.22,-73.6"/>
<text text-anchor="middle" x="156.64" y="-73.9" font-family="Times,serif" font-size="14.00">1</text>
</g>
</g>
</svg>
